# xmcd CD database file
#
# Track frame offsets:
#	150
#	49622
#	104898
#	112954
#	130677
#	178744
#	186923
#	207028
#	267891
#	320943
#
# Disc length: 4333 seconds
#
# Revision: 0
# Processed by: cddbd v1.5.1PL0 Copyright (c) Steve Scherf et al.
# Submitted via: CDex 1.51
#
DISCID=9410eb0a
DTITLE=Miles Davis - Live at Fillmore West19700412
DYEAR=1970
DGENRE=Jazz
TTITLE0=It's About That Time
TTITLE1=Directions
TTITLE2=I Fall in Love Too Easily
TTITLE3=Sanctuary
TTITLE4=Footprints
TTITLE5=Agitation
TTITLE6=No Blues
TTITLE7=Bitches Brew
TTITLE8=Spanish Key
TTITLE9=The Theme
EXTD=YEAR: 1970
EXTT0=
EXTT1=
EXTT2=
EXTT3=
EXTT4=
EXTT5=
EXTT6=
EXTT7=
EXTT8=
EXTT9=
PLAYORDER=
